<?xml version="1.0" encoding="utf-8"?>
<!-- Generator: Adobe Illustrator 16.0.0, SVG Export Plug-In . SVG Version: 6.00 Build 0)  -->
<!DOCTYPE svg PUBLIC "-//W3C//DTD SVG 1.1//EN" "http://www.w3.org/Graphics/SVG/1.1/DTD/svg11.dtd">
<svg version="1.1" id="Capa_1" xmlns="http://www.w3.org/2000/svg" xmlns:xlink="http://www.w3.org/1999/xlink" x="0px" y="0px"
	 width="485.213px" height="485.213px" viewBox="0 0 485.213 485.213" enable-background="new 0 0 485.213 485.213"
	 xml:space="preserve">
<linearGradient id="rect4140_2_" gradientUnits="userSpaceOnUse" x1="246.1184" y1="8.0811" x2="238.7428" y2="493.1329">
	<stop  offset="0" style="stop-color:#F34900"/>
	<stop  offset="1" style="stop-color:#F77802"/>
</linearGradient>
<path id="rect4140_1_" fill="url(#rect4140_2_)" d="M242.553,0L242.553,0c133.958,0,242.552,108.594,242.552,242.554l0,0
	c0,133.958-108.595,242.553-242.552,242.553l0,0c-133.958,0-242.554-108.597-242.554-242.553l0,0
	C-0.001,108.595,108.596,0,242.553,0z"/>
<g>
	<path fill-rule="evenodd" clip-rule="evenodd" fill="#FFFFFF" d="M257.558,411.49c-25.623,0-50.233,0-75.465,0
		c0-56.163,0-112.18,0-168.676c-12.521,0-24.436,0-36.664,0c0-19.205,0-37.93,0-57.148c11.962,0,23.874,0,36.56,0
		c0-2.237-0.013-3.99,0.002-5.743c0.139-16.488-0.241-33.002,0.541-49.46c1.26-26.514,16.743-42.817,40.479-51.549
		c8.738-3.214,18.514-4.6,27.879-4.913c21.125-0.705,42.289-0.222,63.827-0.222c0,20.088,0,40.121,0,60.777
		c-5.963,0-11.901-0.001-17.841,0.001c-7.33,0.002-14.661-0.086-21.989,0.032c-10.456,0.169-17.052,6.889-17.058,17.202
		c-0.006,10.982-0.001,21.965-0.001,33.637c19.19,0,38.061,0,57.604,0c-2.351,19.396-4.608,38.027-6.915,57.061
		c-17.16,0-33.747,0-50.958,0C257.558,298.981,257.558,355.002,257.558,411.49z"/>
</g>
</svg>
