<?xml version="1.0" encoding="utf-8"?>
<!-- Generator: Adobe Illustrator 16.0.0, SVG Export Plug-In . SVG Version: 6.00 Build 0)  -->
<!DOCTYPE svg PUBLIC "-//W3C//DTD SVG 1.1//EN" "http://www.w3.org/Graphics/SVG/1.1/DTD/svg11.dtd">
<svg version="1.1" id="Layer_1" xmlns="http://www.w3.org/2000/svg" xmlns:xlink="http://www.w3.org/1999/xlink" x="0px" y="0px"
	 width="253.675px" height="770.985px" viewBox="258.292 -258.292 253.675 770.985"
	 enable-background="new 258.292 -258.292 253.675 770.985" xml:space="preserve">
<rect x="258.292" y="-258.292" fill="#FF8400" width="254.35" height="770.934"/>
<g>
	<path fill="#FFFFFF" d="M377.215,46.117V3.691H333.39v-22.097h107.243V51.42h-17.898V3.691h-27.695v42.426H377.215z"/>
	<path fill="#FFFFFF" d="M333.39,87.732V65.635h107.243v22.097H333.39z"/>
	<path fill="#FFFFFF" d="M351.141,130.305v46.919H333.39v-69.016h107.243v22.097H351.141z"/>
	<path fill="#FFFFFF" d="M422.733,255.52V222.67h-89.345v-22.097h89.345v-32.408h17.899v87.355H422.733L422.733,255.52z"/>
	<path fill="#FFFFFF" d="M379.866,332.638v-42.426H351.14v49.791h-17.751v-71.888h107.244v71.741h-17.898v-49.646h-25.559v42.426
		L379.866,332.638L379.866,332.638z"/>
	<path fill="#FFFFFF" d="M372.647,392.667v-17.604h-39.259v-22.098h107.244v39.848c0,12.67-2.824,22.439-8.472,29.315
		c-5.646,6.874-13.626,10.313-23.938,10.313c-7.317,0-13.418-1.584-18.305-4.751c-4.886-3.167-8.776-7.967-11.674-14.399
		l-43.824,23.201h-1.031v-23.717L372.647,392.667z M390.547,375.063v17.824c0,5.549,1.41,9.844,4.234,12.891
		c2.823,3.044,6.714,4.565,11.675,4.565c5.058,0,9.034-1.437,11.933-4.309c2.896-2.873,4.346-7.28,4.346-13.222v-17.752h-32.188
		V375.063z"/>
</g>
<path fill="#FFFFFF" d="M446.499-59.06c-2.44,1.017-4.536,0.597-6.262-1.259l-44.155-44.14h-66.437
	c-2.521,0-4.269-1.167-5.292-3.489c-0.284-0.782-0.446-1.529-0.446-2.245c0-1.609,0.585-2.958,1.71-4.036l22.921-22.921
	c1.133-1.132,2.479-1.702,4.035-1.702h43.514l44.143-44.14c1.733-1.853,3.824-2.269,6.27-1.256c2.33,1.013,3.489,2.777,3.489,5.276
	v114.625C449.988-61.84,448.829-60.077,446.499-59.06z"/>
</svg>
