<?xml version="1.0" encoding="utf-8"?>
<!-- Generator: Adobe Illustrator 16.0.0, SVG Export Plug-In . SVG Version: 6.00 Build 0)  -->
<!DOCTYPE svg PUBLIC "-//W3C//DTD SVG 1.1//EN" "http://www.w3.org/Graphics/SVG/1.1/DTD/svg11.dtd">
<svg version="1.1"
	 id="svg2" xmlns:dc="http://purl.org/dc/elements/1.1/" xmlns:cc="http://creativecommons.org/ns#" xmlns:rdf="http://www.w3.org/1999/02/22-rdf-syntax-ns#" xmlns:svg="http://www.w3.org/2000/svg" xmlns:sodipodi="http://sodipodi.sourceforge.net/DTD/sodipodi-0.dtd" xmlns:inkscape="http://www.inkscape.org/namespaces/inkscape" sodipodi:docname="mail.svg" inkscape:version="0.91 r13725"
	 xmlns="http://www.w3.org/2000/svg" xmlns:xlink="http://www.w3.org/1999/xlink" x="0px" y="0px" width="425.881px"
	 height="425.881px" viewBox="0 0 425.881 425.881" enable-background="new 0 0 425.881 425.881" xml:space="preserve">
<linearGradient id="rect4140_2_" gradientUnits="userSpaceOnUse" x1="216.0686" y1="7.0942" x2="209.5935" y2="432.9259">
	<stop  offset="0" style="stop-color:#F34900"/>
	<stop  offset="1" style="stop-color:#F77802"/>
</linearGradient>
<path id="rect4140_1_" fill="url(#rect4140_2_)" d="M212.94,0L212.94,0c117.604,0,212.938,95.336,212.938,212.94l0,0
	c0,117.604-95.336,212.939-212.938,212.939l0,0c-117.604,0-212.94-95.338-212.94-212.939l0,0C-0.001,95.336,95.337,0,212.94,0z"/>
<sodipodi:namedview  id="base" borderopacity="1.0" bordercolor="#666666" pagecolor="#ffffff" inkscape:cy="335.55007" inkscape:cx="-325.44712" inkscape:zoom="0.98994949" fit-margin-left="0" fit-margin-top="0" showgrid="false" inkscape:window-maximized="1" inkscape:current-layer="text4136" inkscape:document-units="px" inkscape:pageshadow="2" inkscape:pageopacity="0.0" inkscape:window-y="0" inkscape:window-x="0" inkscape:window-height="835" inkscape:window-width="1600" fit-margin-bottom="0" fit-margin-right="0">
	</sodipodi:namedview>
<g>
	<path fill-rule="evenodd" clip-rule="evenodd" fill="#FFFFFF" d="M206.535,330.893c-18.981,0-37.963,0.009-56.943-0.002
		c-29.063-0.018-52.709-19.816-57.744-48.433c-0.518-2.943-0.735-5.978-0.739-8.969c-0.045-38.648-0.067-77.297-0.01-115.945
		c0.049-31.71,25.833-57.474,57.579-57.524c38.649-0.062,77.296-0.064,115.945-0.01c31.461,0.044,57.327,26.03,57.345,57.519
		c0.021,38.477,0.019,76.954,0.003,115.43c-0.014,32.177-25.768,57.902-57.979,57.931
		C244.839,330.906,225.687,330.893,206.535,330.893z M305.483,215.473c0-19.151,0.022-38.3-0.007-57.45
		c-0.035-23.373-18.129-41.501-41.472-41.519c-38.299-0.027-76.599-0.024-114.898-0.001c-23.355,0.013-41.506,18.137-41.521,41.466
		c-0.025,38.3-0.025,76.599,0,114.898c0.015,23.361,18.121,41.503,41.47,41.524c38.299,0.034,76.598,0.034,114.898,0.001
		c23.371-0.02,41.482-18.126,41.523-41.472C305.511,253.771,305.484,234.621,305.483,215.473z"/>
	<path fill-rule="evenodd" clip-rule="evenodd" fill="#FFFFFF" d="M148.801,215.311c0.117-31.967,26.226-57.752,58.317-57.591
		c31.504,0.157,57.268,26.424,57.131,58.249c-0.134,31.616-26.378,57.306-58.436,57.199
		C174.652,273.065,148.687,246.717,148.801,215.311z M247.759,215.35c-0.036-22.797-18.529-41.173-41.39-41.13
		c-22.646,0.042-41.062,18.514-41.069,41.194c-0.008,22.813,18.445,41.267,41.262,41.263
		C229.344,256.674,247.797,238.162,247.759,215.35z"/>
	<path fill-rule="evenodd" clip-rule="evenodd" fill="#FFFFFF" d="M288.986,149.572c-0.044,9.055-7.604,16.471-16.711,16.396
		c-8.897-0.074-16.33-7.649-16.274-16.584c0.058-9.05,7.636-16.482,16.724-16.4C281.626,133.063,289.031,140.616,288.986,149.572z"
		/>
</g>
</svg>
