<?xml version="1.0" encoding="utf-8"?>
<!-- Generator: Adobe Illustrator 16.0.0, SVG Export Plug-In . SVG Version: 6.00 Build 0)  -->
<!DOCTYPE svg PUBLIC "-//W3C//DTD SVG 1.1//EN" "http://www.w3.org/Graphics/SVG/1.1/DTD/svg11.dtd">
<svg version="1.1" id="Capa_1" xmlns="http://www.w3.org/2000/svg" xmlns:xlink="http://www.w3.org/1999/xlink" x="0px" y="0px"
	 width="485.213px" height="485.213px" viewBox="0 0 485.213 485.213" enable-background="new 0 0 485.213 485.213"
	 xml:space="preserve">
<linearGradient id="rect4140_2_" gradientUnits="userSpaceOnUse" x1="131.1731" y1="676.8577" x2="123.7975" y2="191.8063" gradientTransform="matrix(1 0 0 -1 114.9448 684.938)">
	<stop  offset="0" style="stop-color:#F34900"/>
	<stop  offset="1" style="stop-color:#F77802"/>
</linearGradient>
<path id="rect4140_1_" fill="url(#rect4140_2_)" d="M242.553,0L242.553,0c133.958,0,242.552,108.594,242.552,242.554l0,0
	c0,133.958-108.595,242.553-242.552,242.553l0,0c-133.958,0-242.554-108.597-242.554-242.553l0,0
	C-0.001,108.595,108.596,0,242.553,0z"/>
<path fill="#FFFFFF" d="M370.719,353.989l-19.425,19.431c-3.471,3.463-13.623,5.624-13.949,5.624
	c-61.452,0.536-120.621-23.604-164.095-67.08c-43.593-43.617-67.759-102.998-67.11-164.656c0-0.028,2.224-9.893,5.689-13.324
	l19.424-19.427c7.105-7.142,20.762-10.368,30.327-7.168l4.086,1.362c9.537,3.195,19.55,13.742,22.185,23.457l9.771,35.86
	c2.635,9.743-0.919,23.604-8.025,30.712l-12.97,12.974c12.731,47.143,49.723,84.139,96.873,96.901l12.965-12.975
	c7.141-7.142,20.997-10.692,30.719-8.062l35.854,9.806c9.72,2.671,20.263,12.62,23.456,22.154l1.363,4.146
	C381.028,333.262,377.823,346.913,370.719,353.989z"/>
</svg>
