<?xml version="1.0" encoding="utf-8"?>
<!-- Generator: Adobe Illustrator 16.0.0, SVG Export Plug-In . SVG Version: 6.00 Build 0)  -->
<!DOCTYPE svg PUBLIC "-//W3C//DTD SVG 1.1//EN" "http://www.w3.org/Graphics/SVG/1.1/DTD/svg11.dtd">
<svg version="1.1"
	 id="svg2" xmlns:dc="http://purl.org/dc/elements/1.1/" xmlns:cc="http://creativecommons.org/ns#" xmlns:rdf="http://www.w3.org/1999/02/22-rdf-syntax-ns#" xmlns:svg="http://www.w3.org/2000/svg" xmlns:sodipodi="http://sodipodi.sourceforge.net/DTD/sodipodi-0.dtd" xmlns:inkscape="http://www.inkscape.org/namespaces/inkscape" sodipodi:docname="mail.svg" inkscape:version="0.91 r13725"
	 xmlns="http://www.w3.org/2000/svg" xmlns:xlink="http://www.w3.org/1999/xlink" x="0px" y="0px" width="425.881px"
	 height="425.881px" viewBox="0 0 425.881 425.881" enable-background="new 0 0 425.881 425.881" xml:space="preserve">
<sodipodi:namedview  id="base" borderopacity="1.0" bordercolor="#666666" pagecolor="#ffffff" inkscape:cy="335.55007" inkscape:cx="-325.44712" inkscape:zoom="0.98994949" fit-margin-left="0" fit-margin-top="0" showgrid="false" inkscape:window-maximized="1" inkscape:current-layer="text4136" inkscape:document-units="px" inkscape:pageshadow="2" inkscape:pageopacity="0.0" inkscape:window-y="0" inkscape:window-x="0" inkscape:window-height="835" inkscape:window-width="1600" fit-margin-bottom="0" fit-margin-right="0">
	</sodipodi:namedview>
<linearGradient id="rect4140_1_" gradientUnits="userSpaceOnUse" x1="216.0686" y1="7.0942" x2="209.5935" y2="432.9259">
	<stop  offset="0" style="stop-color:#F34900"/>
	<stop  offset="1" style="stop-color:#F77802"/>
</linearGradient>
<path id="rect4140" fill="url(#rect4140_1_)" d="M212.94,0L212.94,0c117.604,0,212.938,95.336,212.938,212.94l0,0
	c0,117.604-95.336,212.939-212.938,212.939l0,0c-117.604,0-212.94-95.338-212.94-212.939l0,0C-0.001,95.336,95.337,0,212.94,0z"/>
<g>
	<path id="WhatsApp" fill="#FFFFFF" d="M340.941,209.644c0,68.875-56.261,124.702-125.672,124.702
		c-22.038,0-42.739-5.63-60.75-15.517l-69.578,22.11l22.685-66.905c-11.442-18.792-18.034-40.83-18.034-64.392
		c0-68.873,56.267-124.703,125.678-124.703C284.685,84.94,340.941,140.771,340.941,209.644z M215.269,104.8
		c-58.267,0-105.662,47.032-105.662,104.843c0,22.941,7.479,44.186,20.128,61.469l-13.201,38.939l40.604-12.906
		c16.683,10.953,36.668,17.342,58.131,17.342c58.258,0,105.661-47.027,105.661-104.839C320.93,151.838,273.53,104.8,215.269,104.8z
		 M278.73,238.362c-0.778-1.27-2.828-2.038-5.905-3.566c-3.084-1.526-18.232-8.924-21.051-9.938
		c-2.822-1.02-4.883-1.533-6.933,1.527c-2.052,3.062-7.956,9.938-9.757,11.978c-1.8,2.045-3.595,2.304-6.678,0.772
		c-3.078-1.527-13-4.758-24.768-15.17c-9.156-8.104-15.34-18.101-17.139-21.167c-1.794-3.056-0.188-4.711,1.353-6.23
		c1.387-1.37,3.083-3.57,4.622-5.353c1.544-1.789,2.056-3.058,3.078-5.1c1.031-2.039,0.517-3.822-0.257-5.354
		c-0.769-1.528-6.936-16.572-9.5-22.691c-2.565-6.114-5.13-5.097-6.93-5.097c-1.794,0-3.851-0.256-5.904-0.256
		s-5.394,0.767-8.218,3.822c-2.821,3.061-10.777,10.456-10.777,25.495c0,15.042,11.032,29.572,12.578,31.611
		c1.538,2.036,21.306,33.904,52.623,46.146c31.319,12.232,31.319,8.149,36.968,7.64c5.645-0.513,18.223-7.396,20.8-14.528
		C279.496,245.757,279.496,239.641,278.73,238.362z"/>
</g>
</svg>
